<svg width="71" height="40" viewBox="0 0 71 40" fill="none" xmlns="http://www.w3.org/2000/svg">
<path d="M0 32.8158C0 33.7105 0.319418 34.387 0.958119 34.8455C1.59689 35.304 2.27966 35.4661 3.00651 35.332C3.68929 35.1978 4.16835 34.9517 4.44376 34.5939C4.71903 34.236 4.85674 33.6433 4.85674 32.8158V23.0864C4.85674 22.393 4.61999 21.8059 4.14641 21.325C3.6729 20.8441 3.09473 20.6037 2.41188 20.6037C1.75111 20.6037 1.18397 20.8441 0.710397 21.325C0.236822 21.8059 0 22.393 0 23.0864V32.8158ZM7.59888 36.9759C7.59888 37.6246 7.82466 38.111 8.27617 38.4354C8.72774 38.7597 9.30591 38.9219 10.0107 38.9219C10.7375 38.9219 11.3267 38.7597 11.7783 38.4354C12.2298 38.1111 12.4555 37.6246 12.4555 36.9759V14.2964C12.4555 13.6254 12.2187 13.0494 11.7452 12.5686C11.2716 12.0878 10.6935 11.8473 10.0107 11.8473C9.34992 11.8473 8.78271 12.0878 8.30921 12.5686C7.83563 13.0495 7.59888 13.6254 7.59888 14.2964V36.9759ZM15.1647 38.0495C15.1647 38.6981 15.396 39.1846 15.8585 39.509C16.3211 39.8333 16.9158 39.9954 17.6427 39.9954C18.3475 39.9954 18.9256 39.8333 19.3771 39.509C19.8287 39.1846 20.0545 38.6981 20.0545 38.0495V17.3494C20.0545 16.6561 19.8177 16.0633 19.3442 15.5713C18.8706 15.0793 18.3034 14.8333 17.6427 14.8333C16.9598 14.8333 16.3762 15.0793 15.8916 15.5713C15.4071 16.0633 15.1648 16.6561 15.1648 17.3494V38.0495H15.1647ZM22.7636 38.1501C22.7636 39.3803 23.5785 39.9954 25.2084 39.9954C26.8383 39.9954 27.6532 39.3803 27.6532 38.1501V4.60059C27.6532 2.72182 27.0916 1.65944 25.9683 1.41338C25.2414 1.23443 24.5255 1.44693 23.8208 2.05083C23.1159 2.65472 22.7635 3.50459 22.7635 4.60059V38.1501H22.7636ZM30.4947 39.1231V2.62117C30.4947 1.45814 30.836 0.764805 31.5189 0.541096C32.9946 0.183257 34.4593 0.00430298 35.913 0.00430298C39.2829 0.00430298 42.4216 0.809492 45.3289 2.41987C48.2363 4.03025 50.5876 6.22775 52.3827 9.01236C54.1778 11.797 55.2185 14.8668 55.5048 18.2218C56.8484 17.6402 58.28 17.3495 59.7998 17.3495C62.8834 17.3495 65.521 18.4566 67.7125 20.6709C69.9041 22.8852 70.9999 25.5468 70.9999 28.6558C70.9999 31.7871 69.9041 34.4598 67.7125 36.6741C65.521 38.8884 62.8944 39.9955 59.8328 39.9955L31.0892 39.962C30.8909 39.8949 30.7423 39.7718 30.6432 39.5929C30.544 39.414 30.4947 39.2573 30.4947 39.1231Z" fill="white"/>
</svg>
